name C:\Users\tom_v\MusculoskeletalSpecialization_revisited\Results\Case_13\motion.mot
datacolumns 32
datarows 8
range 0.00000000 0.03971094
endheader 
time	pelvis_tilt	pelvis_list	pelvis_rotation	pelvis_tx	pelvis_ty	pelvis_tz	hip_flexion_r	hip_adduction_r	hip_rotation_r	knee_angle_r	ankle_angle_r	subtalar_angle_r	mtp_angle_r	hip_flexion_l	hip_adduction_l	hip_rotation_l	knee_angle_l	ankle_angle_l	subtalar_angle_l	mtp_angle_l	lumbar_extension	lumbar_bending	lumbar_rotation	arm_flex_r	arm_add_r	arm_rot_r	elbow_flex_r	arm_flex_l	arm_add_l	arm_rot_l	elbow_flex_l	
          0.00000000	        -11.53205541	         -2.79588868	          1.27542075	          0.00000000	          0.88955861	         -0.00154149	         44.70647642	          7.21023920	          2.99358612	        -39.25688184	          4.43229510	         -6.54060421	         -0.01746563	          0.73053813	         -2.60941854	          2.78762799	        -50.19391029	        -13.55156511	         15.73227754	         19.49030161	         -0.80090148	          5.00212713	         -3.68860537	         -8.40414491	         -6.63466656	          2.28710575	         68.75352789	         14.17230608	          0.00544570	         17.07313573	          2.93103955	
          0.00567299	        -11.46387872	         -2.70905925	          1.34655664	          0.01997802	          0.88661851	         -0.00114490	         43.92087252	          7.57547619	          3.64373783	        -40.62642684	          6.83261642	         -6.96632688	          0.56205415	          1.67992900	         -2.65484197	          2.52947982	        -52.22653562	        -12.36930973	         15.78646752	         18.10332858	         -0.65333746	          4.91884911	         -3.51821076	         -7.83774769	         -6.47807966	          2.55629895	         66.61154157	         13.66046493	         -0.22623236	         17.01304820	          4.13720292	
          0.01134598	        -11.40113338	         -2.62603537	          1.41329282	          0.03983842	          0.88368255	         -0.00074927	         42.99476930	          7.93589897	          4.26876862	        -41.93226440	          9.46605880	         -7.32867880	          1.53644513	          2.74698833	         -2.69484324	          2.26203528	        -54.32249562	        -11.13767164	         15.76264744	         16.81154187	         -0.51519421	          4.83582740	         -3.33438982	         -7.18752298	         -6.31107875	          2.85563609	         64.29180289	         13.07493009	         -0.50314316	         16.84606418	          5.62731879	
          0.01701898	        -11.34755613	         -2.54782624	          1.46399093	          0.05946804	          0.88088353	         -0.00033883	         41.98328890	          8.29379090	          4.85901786	        -43.02543359	         11.88187994	         -7.74288879	          2.59085293	          3.93980952	         -2.72141639	          1.99862813	        -56.46766497	         -9.86951396	         15.65769684	         15.60729362	         -0.40097762	          4.75333096	         -3.13186821	         -6.42147579	         -6.13206461	          3.19844848	         61.76103993	         12.42202396	         -0.82542747	         16.55848466	          7.41768853	
          0.02269197	        -11.30370941	         -2.47263221	          1.49863738	          0.07880973	          0.87830906	          0.00008946	         40.96129094	          8.64729441	          5.41398756	        -44.02386001	         14.06718839	         -8.16799688	          3.66874465	          5.25418839	         -2.73086947	          1.74535911	        -58.63407636	         -8.58933036	         15.47500962	         14.48779045	         -0.31895202	          4.66795805	         -2.91588573	         -5.52241176	         -5.93717501	          3.59332570	         59.00088202	         11.70394995	         -1.19112971	         16.14823093	          9.51312724	
          0.02836496	        -11.26955009	         -2.39449523	          1.51710032	          0.09786014	          0.87601720	          0.00053206	         39.95361056	          8.98288111	          5.92313142	        -44.95191075	         15.89939511	         -8.59587128	          4.83323884	          6.67521775	         -2.71740551	          1.50003936	        -60.78306424	         -7.31139017	         15.21989797	         13.44477142	         -0.26996654	          4.57227533	         -2.68894163	         -4.48773209	         -5.72209178	          4.04296963	         56.00495047	         10.91950978	         -1.59457542	         15.62394591	         11.90688298	
          0.03403795	        -11.24473735	         -2.30735812	          1.51986219	          0.11664425	          0.87404478	          0.00098034	         38.95049922	          9.28293470	          6.37819034	        -45.79203876	         17.35593716	         -9.00346104	          6.13301568	          8.18488979	         -2.67589136	          1.25787480	        -62.87567998	         -6.03899867	         14.89710275	         12.47272863	         -0.25121410	          4.45945640	         -2.45255194	         -3.32423280	         -5.48270913	          4.54572198	         52.77781144	         10.06739536	         -2.02741648	         15.00139111	         14.58240761	
          0.03971094	        -11.22882872	         -2.20678309	          1.50780846	          0.13519882	          0.87241070	          0.00142584	         37.92960549	          9.53293622	          6.77965855	        -46.51959000	         18.51106452	         -9.35412785	          7.56005331	          9.76606116	         -2.60403054	          1.01255147	        -64.87847678	         -4.77386180	         14.51213179	         11.56726605	         -0.25841293	          4.32475721	         -2.20820185	         -2.04449944	         -5.21518679	          5.09723367	         49.33404967	          9.14828046	         -2.48026392	         14.30064589	         17.51443683	
